# xmcd
#
# Track frame offsets: 
#        150
#        12252
#        32820
#        52324
#        72720
#        94527
#        113750
#        134649
#        149340
#        166487
#
# Disc length: 2585 seconds
#
# Revision: 1
# Processed by: cddbd v1.5.2PL0 Copyright (c) Steve Scherf et al.
# Submitted via: ExactAudioCopy v1.3
#
DISCID=960a170a
DTITLE=Olavi Uusivirta - Nuoruustango
DYEAR=2003
DGENRE=Pop
TTITLE0=Jatsikansa tulee
TTITLE1=Ei mit‰‰n koskaan ollutkaan
TTITLE2=Raivo h‰rk‰
TTITLE3=Lapsuuden loppu
TTITLE4=Lucifer
TTITLE5=Mikael
TTITLE6=Sininen huvimaja (feat. Reetaleena)
TTITLE7=J‰‰n
TTITLE8=Viiden pennin Narkissos
TTITLE9=Musta tulee kuningas
EXTD=
EXTT0=
EXTT1=
EXTT2=
EXTT3=
EXTT4=
EXTT5=
EXTT6=
EXTT7=
EXTT8=
EXTT9=
PLAYORDER=
